<?xml version="1.0" encoding="utf-8"?>
<!-- Generator: Adobe Illustrator 16.0.3, SVG Export Plug-In . SVG Version: 6.00 Build 0)  -->
<!DOCTYPE svg PUBLIC "-//W3C//DTD SVG 1.1//EN" "http://www.w3.org/Graphics/SVG/1.1/DTD/svg11.dtd">
<svg version="1.1" id="Layer_1" xmlns="http://www.w3.org/2000/svg" xmlns:xlink="http://www.w3.org/1999/xlink" x="0px" y="0px"
	 width="90px" height="90px" viewBox="0.5 0.5 90 90" enable-background="new 0.5 0.5 90 90" xml:space="preserve">
<g id="bg_1_">
	<g>
		<circle fill="#AA9566" cx="45.5" cy="45.5" r="45"/>
	</g>
</g>
<g>
	<path fill="#231F20" d="M48.367,56.29l-0.066-0.423h-5.605l-0.065,0.424c-0.097,0.629-0.17,0.781-0.173,0.787l0.396,0.289v0.5
		h5.292v-0.596l0.396-0.194C48.537,57.07,48.465,56.918,48.367,56.29z"/>
	<path fill="#231F20" d="M63.596,68.924l-16.24-40.379l-0.871-2.16l2.662-8.656l-0.955-0.294l-2.043,6.639l0.09-8.929l-1-0.01
		l-0.09,9.129l-1.54-5.004l-0.956,0.294l2,6.501l-1.007,2.503l-16.24,40.361l-0.616,1.528l1.38,0.896l7.112,4.412l0.497,0.109h0.593
		h2.964h12.329h2.965h0.593l0.491-0.107l7.111-4.485l1.387-0.845L63.596,68.924z M60.006,65.197l-5.469,3.531l-0.963-4.636
		c0.045-0.014,0.09-0.014,0.131-0.036l4.631-2.992L60.006,65.197z M57.955,60.122l-4.59,2.964l-0.975-4.688
		c0.006,0,0.012,0.004,0.018,0.004c0.094,0,0.188-0.025,0.271-0.079l3.604-2.33L57.955,60.122z M55.904,55.049l-3.711,2.396
		l-0.955-4.594l2.996-1.937L55.904,55.049z M51.021,51.803l-0.955-4.592l2.117-1.366l1.67,4.13L51.021,51.803z M51.803,44.9
		l-1.953,1.262l-0.961-4.62c0.027-0.011,0.057-0.007,0.082-0.023l1.162-0.75L51.803,44.9z M49.752,39.825l-1.076,0.694l-1.434-6.906
		L49.752,39.825z M43.801,33.503l-1.46,7.013l-1.091-0.704L43.801,33.503z M40.868,40.755l1.185,0.764
		c0.022,0.015,0.05,0.012,0.074,0.021l-0.961,4.615l-1.968-1.271L40.868,40.755z M38.815,45.828l2.131,1.376l-0.956,4.591
		l-2.845-1.838L38.815,45.828z M36.765,50.9l3.008,1.942l-0.957,4.593l-3.724-2.404L36.765,50.9z M34.711,55.975l3.633,2.349
		c0.084,0.054,0.178,0.079,0.271,0.079l0,0l-0.974,4.673l-4.601-2.972L34.711,55.975z M35.505,73.33l-6.246-3.875l1.349-3.332
		l5.641,3.643L35.505,73.33z M30.989,65.18l1.67-4.131l4.66,3.008c0.034,0.021,0.074,0.021,0.111,0.033l-0.965,4.627L30.989,65.18z
		 M51.312,73.867c-0.572-3.26-1.681-9.561-2.021-11.57c-0.467-2.756-1.271-2.43-2.844-2.43h-1.898c-1.569,0-2.346-0.307-2.845,2.43
		c-0.364,1.996-1.46,8.307-2.024,11.57h-3.311l9.13-44.038l9.13,44.038H51.312z M55.494,73.334l-0.738-3.557l5.633-3.637
		l1.354,3.344L55.494,73.334z"/>
</g>
</svg>
